<?xml version="1.0" encoding="utf-8"?>
<!-- Generator: Adobe Illustrator 17.1.0, SVG Export Plug-In . SVG Version: 6.00 Build 0)  -->
<!DOCTYPE svg PUBLIC "-//W3C//DTD SVG 1.1//EN" "http://www.w3.org/Graphics/SVG/1.1/DTD/svg11.dtd">
<svg version="1.1" id="Lager_1" xmlns="http://www.w3.org/2000/svg" xmlns:xlink="http://www.w3.org/1999/xlink" x="0px" y="0px"
	 viewBox="0 0 654.2 190" enable-background="new 0 0 654.2 190" xml:space="preserve">
<polygon fill="#FFFFFF" points="265.1,170.2 263.6,170.2 263.6,19 265.1,19 265.1,170.2 "/>
<g>
	<path fill="#FFFFFF" d="M279.4,55.7l5-6c3.5,2.9,7.1,4.7,11.6,4.7c3.5,0,5.6-1.4,5.6-3.7v-0.1c0-2.2-1.3-3.3-7.8-4.9
		c-7.8-2-12.8-4.1-12.8-11.8v-0.1c0-7,5.6-11.7,13.6-11.7c5.6,0,10.5,1.8,14.4,4.9l-4.4,6.4c-3.4-2.4-6.8-3.8-10.1-3.8
		c-3.3,0-5,1.5-5,3.4v0.1c0,2.5,1.7,3.4,8.4,5.1c7.9,2,12.3,4.9,12.3,11.6v0.1c0,7.7-5.9,12-14.2,12C289.9,61.9,284,59.9,279.4,55.7
		z"/>
	<path fill="#FFFFFF" d="M311.2,22.6h9.4l10.1,27.3l10.1-27.3h9.2l-15.7,39h-7.5L311.2,22.6z"/>
	<path fill="#FFFFFF" d="M354.6,22.6h29.2v7.6h-20.8v7.9h18.3v7.6h-18.3v8.1h21v7.6h-29.5V22.6z"/>
	<path fill="#FFFFFF" d="M392.7,22.6h7.9l18.1,23.8V22.6h8.4v38.7h-7.2l-18.8-24.6v24.6h-8.4V22.6z"/>
	<path fill="#FFFFFF" d="M434,55.7l5-6c3.5,2.9,7.1,4.7,11.6,4.7c3.5,0,5.6-1.4,5.6-3.7v-0.1c0-2.2-1.3-3.3-7.8-4.9
		c-7.8-2-12.8-4.1-12.8-11.8v-0.1c0-7,5.6-11.7,13.6-11.7c5.6,0,10.5,1.8,14.4,4.9l-4.4,6.4c-3.4-2.4-6.8-3.8-10.1-3.8
		c-3.3,0-5,1.5-5,3.4v0.1c0,2.5,1.7,3.4,8.4,5.1c7.9,2,12.3,4.9,12.3,11.6v0.1c0,7.7-5.9,12-14.2,12C444.5,61.9,438.6,59.9,434,55.7
		z"/>
	<path fill="#FFFFFF" d="M472.3,22.6h8.5v16.9l15.7-16.9h10.3L491,39.1l16.5,22.3h-10.2l-12-16.5l-4.5,4.6v11.8h-8.5V22.6z"/>
	<path fill="#FFFFFF" d="M282.4,76.9h8.5v38.7h-8.5V76.9z"/>
	<path fill="#FFFFFF" d="M300.7,76.9h7.9l18.1,23.8V76.9h8.4v38.7h-7.2l-18.8-24.6v24.6h-8.4V76.9z"/>
	<path fill="#FFFFFF" d="M341.9,110l5-6c3.5,2.9,7.1,4.7,11.6,4.7c3.5,0,5.6-1.4,5.6-3.7v-0.1c0-2.2-1.3-3.3-7.8-4.9
		c-7.8-2-12.8-4.1-12.8-11.8v-0.1c0-7,5.6-11.7,13.6-11.7c5.6,0,10.5,1.8,14.4,4.9l-4.4,6.4c-3.4-2.4-6.8-3.8-10.1-3.8
		c-3.3,0-5,1.5-5,3.4v0.1c0,2.5,1.7,3.4,8.4,5.1c7.9,2.1,12.3,4.9,12.3,11.6v0.1c0,7.7-5.9,12-14.2,12
		C352.4,116.2,346.5,114.2,341.9,110z"/>
	<path fill="#FFFFFF" d="M391.2,76.7h7.9l16.6,39h-8.9l-3.5-8.7h-16.4l-3.5,8.7h-8.7L391.2,76.7z M400.2,99.5L395,86.9l-5.1,12.6
		H400.2z"/>
	<path fill="#FFFFFF" d="M420.3,76.9h9.2l10.2,16.4l10.2-16.4h9.2v38.7h-8.5V90.4l-10.9,16.5h-0.2l-10.8-16.4v25.1h-8.4V76.9z"/>
	<path fill="#FFFFFF" d="M468,76.9h8.5v31h19.3v7.7H468V76.9z"/>
	<path fill="#FFFFFF" d="M501.9,76.9h8.5v38.7h-8.5V76.9z"/>
	<path fill="#FFFFFF" d="M520.2,76.9h7.9l18.1,23.8V76.9h8.4v38.7h-7.2l-18.8-24.6v24.6h-8.4V76.9z"/>
	<path fill="#FFFFFF" d="M561.2,96.4v-0.1c0-11,8.6-20,20.3-20c7,0,11.2,1.9,15.2,5.3l-5.4,6.5c-3-2.5-5.6-3.9-10.1-3.9
		c-6.2,0-11.1,5.5-11.1,12.1v0.1c0,7.1,4.9,12.3,11.7,12.3c3.1,0,5.9-0.8,8-2.3v-5.5h-8.6v-7.4h16.8v16.8c-4,3.4-9.5,6.1-16.5,6.1
		C569.5,116.3,561.2,107.9,561.2,96.4z"/>
	<path fill="#FFFFFF" d="M603.6,110l5-6c3.5,2.9,7.1,4.7,11.6,4.7c3.5,0,5.6-1.4,5.6-3.7v-0.1c0-2.2-1.3-3.3-7.8-4.9
		c-7.8-2-12.8-4.1-12.8-11.8v-0.1c0-7,5.6-11.7,13.6-11.7c5.6,0,10.5,1.8,14.4,4.9l-4.4,6.4c-3.4-2.4-6.8-3.8-10.1-3.8
		c-3.3,0-5,1.5-5,3.4v0.1c0,2.5,1.7,3.4,8.4,5.1c7.9,2.1,12.3,4.9,12.3,11.6v0.1c0,7.7-5.9,12-14.2,12
		C614.1,116.2,608.2,114.2,603.6,110z"/>
	<path fill="#FFFFFF" d="M282.5,131.2h8.5v16.9l15.7-16.9H317l-15.8,16.4l16.5,22.3h-10.2l-12-16.5l-4.5,4.6V170h-8.5V131.2z"/>
	<path fill="#FFFFFF" d="M316.9,150.7v-0.1c0-11,8.7-20,20.6-20c12,0,20.5,8.9,20.5,19.9v0.1c0,11-8.7,20-20.6,20
		C325.5,170.6,316.9,161.7,316.9,150.7z M349.2,150.7v-0.1c0-6.6-4.9-12.2-11.7-12.2c-6.9,0-11.6,5.4-11.6,12.1v0.1
		c0,6.6,4.9,12.2,11.7,12.2C344.4,162.8,349.2,157.4,349.2,150.7z"/>
	<path fill="#FFFFFF" d="M364.5,131.2h7.9l18.1,23.8v-23.8h8.4V170h-7.2L373,145.4V170h-8.4V131.2z"/>
	<path fill="#FFFFFF" d="M416.7,139.1h-11.8v-7.9H437v7.9h-11.8V170h-8.5V139.1z"/>
	<path fill="#FFFFFF" d="M442.9,131.2h17.7c4.9,0,8.7,1.4,11.3,3.9c2.2,2.2,3.3,5.2,3.3,8.9v0.1c0,6.3-3.4,10.2-8.3,12l9.5,13.8h-10
		l-8.3-12.4H458h-6.6V170h-8.5V131.2z M460,150.1c4.1,0,6.5-2.2,6.5-5.5v-0.1c0-3.7-2.5-5.5-6.7-5.5h-8.5v11.1H460z"/>
	<path fill="#FFFFFF" d="M480.7,150.7v-0.1c0-11,8.7-20,20.6-20c12,0,20.5,8.9,20.5,19.9v0.1c0,11-8.7,20-20.6,20
		C489.3,170.6,480.7,161.7,480.7,150.7z M513,150.7v-0.1c0-6.6-4.9-12.2-11.7-12.2c-6.9,0-11.6,5.4-11.6,12.1v0.1
		c0,6.6,4.9,12.2,11.7,12.2S513,157.4,513,150.7z"/>
	<path fill="#FFFFFF" d="M528.8,131.2h8.5v31h19.3v7.7h-27.8V131.2z"/>
	<path fill="#FFFFFF" d="M561.4,131.2h8.5v31h19.3v7.7h-27.8V131.2z"/>
</g>
<g>
	<path fill="#FFFFFF" d="M113.6,142.6h6v11.9l11.1-11.9h7.3l-11.1,11.6l11.6,15.7h-7.2l-8.5-11.6l-3.2,3.3v8.3h-6V142.6z"/>
	<path fill="#FFFFFF" d="M136.9,156.3L136.9,156.3c0-7.8,6.1-14.2,14.5-14.2c8.4,0,14.5,6.3,14.5,14v0.1c0,7.8-6.1,14.1-14.6,14.1
		C142.9,170.4,136.9,164.1,136.9,156.3z M159.6,156.3L159.6,156.3c0-4.8-3.4-8.7-8.3-8.7c-4.8,0-8.2,3.8-8.2,8.5v0.1
		c0,4.7,3.4,8.6,8.3,8.6C156.2,164.8,159.6,161,159.6,156.3z"/>
	<path fill="#FFFFFF" d="M169.1,142.6h5.5l12.8,16.8v-16.8h5.9v27.3h-5.1L175,152.6v17.4h-5.9V142.6z"/>
	<path fill="#FFFFFF" d="M204.4,148.2h-8.3v-5.5h22.6v5.5h-8.3v21.8h-6V148.2z"/>
	<path fill="#FFFFFF" d="M218,156.3L218,156.3c0-7.8,6.1-14.2,14.5-14.2c8.4,0,14.5,6.3,14.5,14v0.1c0,7.8-6.1,14.1-14.5,14.1
		C224.1,170.4,218,164.1,218,156.3z M240.8,156.3L240.8,156.3c0-4.8-3.4-8.7-8.3-8.7c-4.8,0-8.2,3.8-8.2,8.5v0.1
		c0,4.7,3.4,8.6,8.3,8.6C237.4,164.8,240.8,161,240.8,156.3z"/>
</g>
<path fill="#FFFFFF" d="M191.1,19.4c-27.2,0-50.2,18.8-56.4,44.2c-6.3-25.3-29.2-44.2-56.5-44.2C46.1,19.4,20,45.5,20,77.6
	c0,32,25.9,58,57.9,58.2l-22.5,34.2h31.6c16.3-24.8,37.7-57.1,39.8-60.4c3.6-5.4,6.3-11.5,7.9-17.9c6.3,25.3,29.2,44.2,56.4,44.2
	c32.1,0,58.2-26.1,58.2-58.2C249.2,45.5,223.1,19.4,191.1,19.4z M78.2,109.4c-17.5,0-31.8-14.3-31.8-31.8
	c0-17.5,14.3-31.8,31.8-31.8C95.7,45.8,110,60,110,77.6C110,95.1,95.7,109.4,78.2,109.4z M191.1,109.4c-17.5,0-31.8-14.3-31.8-31.8
	c0-17.5,14.3-31.8,31.8-31.8c17.5,0,31.8,14.3,31.8,31.8C222.9,95.1,208.6,109.4,191.1,109.4z"/>
</svg>
